# xmcd
#
# Track frame offsets: 
#        150
#        18172
#        36541
#        48876
#        68107
#        74173
#        89657
#        101115
#        113979
#
# Disc length: 1748 seconds
#
# Revision: 0
# Processed by: cddbd v1.5.2PL0 Copyright (c) Steve Scherf et al.
# Submitted via: ExactAudioCopy v1.2
#
DISCID=8306d209
DTITLE=The Reverend Shawn Amos - The Reverend Shawn Amos Breaks It Dow
DTITLE=n
DYEAR=2018
DGENRE=Blues
TTITLE0=Moved
TTITLE1=2017
TTITLE2=Hold Hands
TTITLE3=The Jean Genie
TTITLE4=Freedom Suite: Uncle Tom's Prayer
TTITLE5=Freedom Suite: Does My Life Matter
TTITLE6=Freedom Suite: (We've Got To) Come Together
TTITLE7=Ain't Gonna Name Names
TTITLE8=(What's So Funny 'Bout) Peace, Love and Understanding)
EXTD=
EXTT0=
EXTT1=
EXTT2=
EXTT3=
EXTT4=
EXTT5=
EXTT6=
EXTT7=
EXTT8=
PLAYORDER=
